<?xml version="1.0" encoding="UTF-8" standalone="no"?>
<svg
   xmlns:dc="http://purl.org/dc/elements/1.1/"
   xmlns:cc="http://creativecommons.org/ns#"
   xmlns:rdf="http://www.w3.org/1999/02/22-rdf-syntax-ns#"
   xmlns:svg="http://www.w3.org/2000/svg"
   xmlns="http://www.w3.org/2000/svg"
   version="1.1"
   id="svg2"
   height="256"
   width="256">
  <defs
     id="defs4" />
  <metadata
     id="metadata7">
    <rdf:RDF>
      <cc:Work
         rdf:about="">
        <dc:format>image/svg+xml</dc:format>
        <dc:type
           rdf:resource="http://purl.org/dc/dcmitype/StillImage" />
        <dc:title></dc:title>
      </cc:Work>
    </rdf:RDF>
  </metadata>
  <g
     style="display:inline"
     id="g4065"
     transform="translate(0,-796.3609)">
    <path
       id="rect4067"
       d="m 51.375,881.14215 0,90.31675 21.625,4.24307 0,-94.55982 -21.625,0 z"
       style="fill:#4848ff;fill-opacity:1;stroke:#4848ff;stroke-width:5.22185707;stroke-linecap:square;stroke-linejoin:miter;stroke-miterlimit:4;stroke-opacity:1;stroke-dasharray:none;stroke-dashoffset:0" />
    <path
       id="rect4069"
       transform="translate(0,796.3609)"
       d="M 220.9375 49.09375 L 29.75 85.78125 L 29.75 90.875 L 220.9375 54.15625 L 220.9375 49.09375 z "
       style="fill:#4848ff;fill-opacity:1;stroke:#4848ff;stroke-width:7.08914757;stroke-linecap:square;stroke-linejoin:miter;stroke-miterlimit:4;stroke-opacity:1;stroke-dasharray:none;stroke-dashoffset:0" />
    <path
       id="rect4071"
       d="m 171.53125,858.7984 0,131.86295 46.71875,8.83396 0,-140.69691 -46.71875,0 z"
       style="fill:#4848ff;fill-opacity:1;stroke:#4848ff;stroke-width:12.78176594;stroke-linecap:square;stroke-linejoin:miter;stroke-miterlimit:4;stroke-opacity:1;stroke-dasharray:none;stroke-dashoffset:0" />
    <path
       id="rect4073"
       transform="translate(0,796.3609)"
       d="M 100.59375 77.03125 L 100.59375 182.6875 L 131.34375 188.59375 L 131.34375 77.03125 L 100.59375 77.03125 z "
       style="fill:#4848ff;fill-opacity:1;stroke:#4848ff;stroke-width:8.84922028;stroke-linecap:square;stroke-linejoin:miter;stroke-miterlimit:4;stroke-opacity:1;stroke-dasharray:none;stroke-dashoffset:0" />
    <g
       id="text4562"
       style="font-size:40px;font-style:normal;font-weight:normal;line-height:125%;letter-spacing:0px;word-spacing:0px;fill:#4848ff;fill-opacity:1;stroke:#4848ff;font-family:Sans;stroke-opacity:1">
      <path
         id="path4567"
         style="font-size:18px;font-variant:normal;font-stretch:normal;fill:#4848ff;font-family:Segoe UI;-inkscape-font-specification:Segoe UI;fill-opacity:1;stroke:#4848ff;stroke-opacity:1"
         d="m 209.81976,1013.9504 -3.63867,0 0,11.2676 -1.47656,0 0,-11.2676 -3.62988,0 0,-1.3359 8.74511,0 z" />
      <path
         id="path4569"
         style="font-size:18px;font-variant:normal;font-stretch:normal;fill:#4848ff;font-family:Segoe UI;-inkscape-font-specification:Segoe UI;fill-opacity:1;stroke:#4848ff;stroke-opacity:1"
         d="m 224.63812,1025.218 -1.46777,0 0,-8.4551 c -1e-5,-0.6679 0.041,-1.4853 0.12305,-2.4521 l -0.0352,0 c -0.14064,0.5684 -0.26661,0.9756 -0.37793,1.2217 l -4.30664,9.6855 -0.7207,0 -4.29786,-9.6152 c -0.12305,-0.2813 -0.24902,-0.7119 -0.37792,-1.292 l -0.0352,0 c 0.0469,0.5039 0.0703,1.3271 0.0703,2.4697 l 0,8.4375 -1.42383,0 0,-12.6035 1.95118,0 3.86718,8.7891 c 0.29882,0.6738 0.49218,1.1777 0.58008,1.5117 l 0.0527,0 c 0.25194,-0.6914 0.45409,-1.207 0.60644,-1.5469 l 3.94629,-8.7539 1.8457,0 z" />
    </g>
  </g>
</svg>
